<svg xmlns="http://www.w3.org/2000/svg" width="33" height="37" viewBox="0 0 33 37">
  <g fill="#8CC84B">
    <path d="M15.0180938,0.469716312 C15.9155391,-0.0531382979 17.0844609,-0.0555 17.9811328,0.469716312 C22.492207,3.0641773 27.0046992,5.65457092 31.515,8.25060638 C32.363332,8.73698582 32.9307773,9.69793617 32.9221406,10.6928688 L32.9221406,26.3021454 C32.928457,27.3382766 32.3049375,28.3221879 31.4099414,28.7975461 C26.9136914,31.3777057 22.4197617,33.9610142 17.9242852,36.5411738 C17.0082773,37.0742624 15.8158945,37.033195 14.9285039,36.4564149 C13.5805313,35.6610461 12.2302383,34.8696135 10.8821367,34.0750319 C10.6066641,33.9078759 10.2961289,33.7748333 10.1016094,33.5029752 C10.2735703,33.2670674 10.5810117,33.2376773 10.830832,33.1346809 C11.3935078,32.9525674 11.910293,32.6602411 12.427207,32.3765745 C12.557918,32.2855177 12.7175039,32.3204184 12.8428008,32.4018972 C13.9954805,33.0745887 15.1379766,33.7668298 16.2945234,34.4330922 C16.54125,34.5780745 16.7910703,34.3855957 17.0019609,34.2659362 C21.4141641,31.7277624 25.8317813,29.1991667 30.2432109,26.6602057 C30.4066641,26.5801702 30.4970273,26.4035674 30.48375,26.2213227 C30.4868438,21.072156 30.4845234,15.9220709 30.4852969,10.7729043 C30.5039883,10.5661241 30.3864258,10.3760071 30.2027344,10.2913794 C25.722082,7.72302837 21.24375,5.15074113 16.7638711,2.58173404 C16.6049984,2.47056256 16.3953211,2.47024978 16.2361289,2.58094681 C11.75625,5.15074113 7.27869141,7.72539007 2.7988125,10.2936099 C2.61576562,10.3783688 2.49291797,10.5653369 2.51470312,10.7729043 C2.51547656,15.9220709 2.51470312,21.072156 2.51470312,26.2221099 C2.49879309,26.4042312 2.59601346,26.5771661 2.75833594,26.6554823 C3.9538125,27.3454929 5.15083594,28.0306489 6.34708594,28.7182979 C7.02100781,29.0875106 7.84845703,29.3068865 8.59095703,29.0240071 C9.2461875,28.7848191 9.70548047,28.1042553 9.69297656,27.3961383 C9.69916406,22.2770177 9.68988281,17.1571099 9.69761719,12.0387766 C9.68124609,11.8115284 9.89303906,11.623773 10.1101172,11.6451596 C10.6845234,11.6412234 11.2597031,11.6372872 11.8341094,11.646734 C12.073875,11.6412234 12.238875,11.885922 12.2092266,12.1148759 C12.2069062,17.2664043 12.2154141,22.4180638 12.2053594,27.5695922 C12.2069062,28.9425284 11.6527383,30.4364362 10.4050547,31.1082092 C8.86797656,31.9186667 6.96815625,31.7467872 5.44964062,30.969656 C4.13505469,30.3018191 2.88053906,29.5136667 1.58928516,28.7982021 C0.69196875,28.3254681 0.0715429687,27.3376206 0.077859375,26.3022766 L0.077859375,10.6928688 C0.0684492187,9.67733688 0.658453125,8.69893617 1.53321094,8.21964184 C6.0286875,5.63738298 10.5233906,3.05315603 15.0180938,0.469716312 Z"/>
    <path d="M18.9399375,11.2823759 C20.9006016,11.1539255 22.999582,11.2062766 24.7639219,12.1894007 C26.1299414,12.9427837 26.8872656,14.5239433 26.9113711,16.0686277 C26.8732148,16.2769823 26.6592305,16.3919184 26.4638086,16.377617 C25.8949453,16.3768298 25.3259531,16.3854894 24.7570898,16.3736809 C24.5157773,16.3831277 24.3755273,16.1566667 24.3452344,15.9395213 C24.1817813,15.2004397 23.7857812,14.4684433 23.1023203,14.1119574 C22.0531523,13.5772943 20.8366641,13.6041915 19.6926211,13.615344 C18.8574375,13.6604787 17.9593477,13.7340851 17.2517813,14.2339787 C16.7085703,14.6126383 16.5435703,15.3770426 16.7374453,15.9926596 C16.9202344,16.4346915 17.4215508,16.5773121 17.8317305,16.7087801 C20.194582,17.3377801 22.698457,17.275195 25.0161914,18.1029716 C25.9757695,18.4404326 26.9144648,19.096461 27.242918,20.119078 C27.6725625,21.4896525 27.4842305,23.1278865 26.5261992,24.2281773 C25.7492813,25.1336277 24.6177422,25.6264362 23.489168,25.8940957 C21.9877969,26.2348369 20.429707,26.2434965 18.9050039,26.0922163 C17.4713086,25.9258475 15.9793477,25.5424645 14.8725586,24.5481879 C13.9261289,23.7117518 13.4638711,22.4084858 13.5097617,21.150617 C13.5207188,20.938195 13.7285156,20.7900638 13.9284492,20.8075142 C14.5013086,20.8027908 15.074168,20.8012163 15.6470273,20.8083014 C15.8758359,20.7916383 16.0454766,20.9929078 16.057207,21.2124149 C16.1629102,21.9165957 16.4229141,22.6556773 17.0261953,23.0731738 C18.1904766,23.8377092 19.6513711,23.7853582 20.9845195,23.8067447 C22.0889883,23.7568865 23.3288086,23.7417979 24.2301211,22.9987801 C24.7056563,22.5749858 24.8465508,21.8659504 24.7180312,21.2559752 C24.5788125,20.7409929 24.0495234,20.5010177 23.595,20.3440957 C21.2624414,19.5930745 18.7305938,19.8655887 16.4205938,19.0162943 C15.4828008,18.6789645 14.5759453,18.0411738 14.2156523,17.0605426 C13.712918,15.6726489 13.9432734,13.9559539 15.0017227,12.8927943 C16.0337461,11.8352766 17.5235156,11.4280142 18.9399375,11.2822447 L18.9399375,11.2823759 Z"/>
  </g>
</svg>
