<svg xmlns="http://www.w3.org/2000/svg" width="32" height="29" viewBox="0 0 32 29">
  <g fill="none" transform="translate(-2 -2)">
    <path fill="#FFF" d="M0.10603125,16.4641304 C0.10603125,19.2210652 2.74457813,21.7946348 6.90426562,23.2453435 C6.07359375,27.5119565 6.75548438,30.950987 9.03276562,32.2909304 C11.3734687,33.6683217 14.8606875,32.7149087 18.1705781,29.7628435 C21.3969375,32.5956783 24.6576094,33.7105043 26.9329219,32.366687 C29.2715156,30.9854217 29.9826563,27.3132391 29.1290625,22.9133348 C33.4617187,21.4518652 35.88525,19.2573652 35.88525,16.4641304 C35.88525,13.771187 33.2419219,11.4415304 29.1382031,10.0001478 C30.0571875,5.41845652 29.2785469,2.06293043 26.9069063,0.667604348 C24.6204844,-0.677647826 21.3218438,0.494856522 18.0480938,3.40172609 C14.6421562,0.316369565 11.3761406,-0.625565217 9.00703125,0.773634783 C6.72271875,2.12276087 6.07092188,5.62434783 6.90426562,9.96987391 C2.88492188,11.3996348 0.10603125,13.7820913 0.10603125,16.4641304 Z"/>
    <path fill="#53C1DE" d="M28.2691406,11.431487 C27.9309331,11.3131213 27.5898561,11.2034692 27.2462344,11.1026348 C27.3032192,10.8663843 27.3559157,10.6290785 27.4042969,10.3908391 C28.1785781,6.55595217 27.6723281,3.46657826 25.9434844,2.44960435 C24.2859375,1.47423913 21.5749687,2.49121304 18.837,4.92216522 C18.5672086,5.16225358 18.3034056,5.40925848 18.0458437,5.66294348 C17.8733616,5.49425799 17.6978315,5.328847 17.5193437,5.16679565 C14.6498906,2.56725652 11.7736875,1.47194348 10.0466719,2.49193043 C8.39067187,3.47002174 7.90017187,6.37445217 8.59725,10.0087565 C8.66660441,10.3686587 8.74491093,10.7267047 8.83209375,11.0825478 C8.425125,11.200487 8.03207812,11.3261739 7.65604687,11.4598957 C4.29201562,12.6565043 2.14354687,14.5320522 2.14354687,16.4773304 C2.14354687,18.4866 4.44979687,20.5018957 7.95389062,21.7237565 C8.23802088,21.8223735 8.5245161,21.9137497 8.81310937,21.9978 C8.71935495,22.3811653 8.63611934,22.767129 8.5635,23.1552391 C7.89890625,26.726413 8.41795312,29.5619739 10.0695937,30.5340391 C11.7755156,31.5376696 14.6386406,30.5060609 17.4266719,28.0195826 C17.6470312,27.8230174 17.8682344,27.6145435 18.0897187,27.3960261 C18.3686937,27.670652 18.6551174,27.9372903 18.9486563,28.1956304 C21.6492188,30.5666087 24.3163125,31.5240391 25.9665469,30.5493913 C27.6709219,29.5427478 28.2247031,26.4965609 27.5055469,22.7903739 C27.4507031,22.5072913 27.3867188,22.2181826 27.315,21.9237652 C27.5160937,21.8632174 27.7133906,21.8006609 27.9059062,21.7355217 C31.5486562,20.5041913 33.9186094,18.5134304 33.9186094,16.4773304 C33.9186094,14.5250217 31.7009531,12.6368478 28.2691406,11.431487 Z"/>
    <path fill="#FFF" d="M27.4789687,20.4209739 C27.3052969,20.4796565 27.1269844,20.5363304 26.9452969,20.5912826 C26.5431094,19.2923739 26.0002969,17.9111087 25.3362656,16.4842174 C25.9700625,15.0910435 26.4917813,13.7275696 26.8827187,12.4369826 C27.2077031,12.533113 27.5232656,12.6342652 27.8272969,12.7411565 C30.7677656,13.7737696 32.5612969,15.3008087 32.5612969,16.4773304 C32.5612969,17.730613 30.6241875,19.3576565 27.4791094,20.4209739 L27.4789687,20.4209739 Z M26.1739687,23.0593957 C26.4919219,24.6982043 26.5373437,26.1799043 26.3266875,27.3382043 C26.1374062,28.3789957 25.756875,29.0728565 25.2863437,29.3507739 C24.2849531,29.9421913 22.143375,29.1734348 19.8340312,27.1458 C19.5692344,26.9133652 19.3024687,26.6651478 19.035,26.4025826 C19.9303594,25.4034 20.8251562,24.2418 21.6984375,22.9519304 C23.234625,22.8129 24.685875,22.585487 26.0019844,22.2751435 C26.0666719,22.542013 26.1243281,22.8035739 26.1739688,23.0593957 Z M12.9763125,29.2486174 C11.9979844,29.6011435 11.2187812,29.611187 10.7478281,29.3341304 C9.74545312,28.7444348 9.32892187,26.4674348 9.8971875,23.4135 C9.96476344,23.0525891 10.0421369,22.6936598 10.1292187,22.3371261 C11.4307031,22.6308261 12.8714062,22.8421696 14.41125,22.9695783 C15.2902969,24.2317565 16.2109687,25.3919217 17.1388125,26.4078913 C16.941621,26.6025143 16.739763,26.7921544 16.5334219,26.9766391 C15.3005625,28.0762565 14.0651719,28.8562043 12.9764531,29.2486174 L12.9763125,29.2486174 Z M8.39292187,20.4132261 C6.84351562,19.872887 5.56396875,19.1707043 4.68689062,18.4045304 C3.89882812,17.7158348 3.50085937,17.0321609 3.50085937,16.4773304 C3.50085937,15.2969348 5.22590625,13.7911304 8.10295312,12.7677 C8.46406395,12.639806 8.82876704,12.5227254 9.19659375,12.4166087 C9.59428125,13.7361783 10.1158594,15.1158652 10.7452969,16.5110478 C10.1077031,17.9270348 9.57867187,19.3286739 9.17732812,20.6637391 C8.91388707,20.586805 8.65233933,20.5032754 8.39292187,20.4132261 Z M9.92939062,9.74274783 C9.33215625,6.62883913 9.72871875,4.27995652 10.7267344,3.69054783 C11.7898594,3.06268696 14.1404062,3.9579913 16.6179375,6.20242174 C16.7762812,6.3459 16.9353281,6.49612174 17.0946562,6.6515087 C16.1715937,7.66288696 15.2593594,8.8143 14.3879062,10.0691609 C12.8934844,10.210487 11.4629062,10.4374696 10.1477812,10.7415 C10.0667705,10.4104597 9.99395048,10.0773887 9.92939062,9.74260435 L9.92939062,9.74274783 Z M23.6356875,13.1958391 C23.3250577,12.6483878 23.0029049,12.1078276 22.6694531,11.5745348 C23.6833594,11.7051 24.6546562,11.8787087 25.56675,12.0912 C25.2929531,12.9866478 24.9516562,13.922987 24.54975,14.8828565 C24.2560993,14.3143655 23.951351,13.7519142 23.6356875,13.1958391 Z M18.0462656,7.64122174 C18.6723281,8.33321739 19.299375,9.1059913 19.9161562,9.94433478 C18.6650171,9.88401367 17.4117905,9.8837264 16.160625,9.94347391 C16.7779687,9.11287826 17.4103594,8.34125217 18.0462656,7.64122174 Z M12.4209844,13.2053087 C12.109273,13.7569614 11.8102229,14.3159614 11.5240781,14.8818522 C11.1287812,13.9252826 10.7905781,12.9847826 10.5143906,12.0765652 C11.421,11.8695261 12.3877969,11.7003652 13.3950937,11.5719522 C13.057905,12.10855 12.7331124,12.6531523 12.4209844,13.2053087 Z M13.4240625,21.4815652 C12.3834375,21.3630522 11.4020156,21.2025 10.4956875,21.0012 C10.7762344,20.076913 11.1218906,19.1161826 11.525625,18.1390957 C11.8129761,18.7054059 12.1133403,19.2647431 12.4264688,19.8166435 C12.7459844,20.3796275 13.0786102,20.9347591 13.4240625,21.4815652 Z M18.0838125,25.4112913 C17.4404531,24.7029391 16.7987812,23.9195478 16.1720156,23.0769 C16.7803594,23.1012913 17.4006562,23.1136304 18.0310781,23.1136304 C18.6787969,23.1136304 19.3190625,23.0988522 19.9492031,23.0701565 C19.3304531,23.9281565 18.7056562,24.7126957 18.0838125,25.4112913 Z M24.5626875,18.0893087 C24.987375,19.077013 25.3454062,20.0325783 25.62975,20.9412261 C24.708375,21.1557261 23.7137344,21.3284739 22.6656562,21.4567435 C23.0015182,20.9134937 23.3267544,20.3634806 23.6411719,19.8070304 C23.9607964,19.2415031 24.2680444,18.6687873 24.5626875,18.0893087 Z M22.4652656,19.1151783 C21.9839344,19.9682937 21.4755407,20.8052142 20.9408906,21.624613 C19.9981406,21.6933391 19.0238906,21.7287783 18.0310781,21.7287783 C17.0423437,21.7287783 16.0804687,21.6973565 15.1541719,21.6360913 C14.6056551,20.8186003 14.0876441,19.9802313 13.60125,19.1227826 C13.1171294,18.2698832 12.6649285,17.3985336 12.245625,16.5106174 C12.663862,15.6224352 13.1146964,14.7506188 13.5971719,13.8970174 L13.5971719,13.8973043 C14.079496,13.0435211 14.5934289,12.2087368 15.1378594,11.3947565 C16.0828594,11.3218696 17.0517656,11.2837043 18.0312187,11.2837043 C19.0150312,11.2837043 19.9852031,11.3221565 20.9299219,11.3956174 C21.4688455,12.2083451 21.9794914,13.0402236 22.4609062,13.8897 C22.9450408,14.7414024 23.4018918,15.6089481 23.8307344,16.4909609 C23.4063031,17.38196 22.9509051,18.2572538 22.4654062,19.1151783 L22.4652656,19.1151783 Z M25.2655312,3.64936957 C26.3295,4.2755087 26.7433594,6.80029565 26.0748281,10.1113435 C26.0310095,10.3270382 25.9833767,10.541908 25.9319531,10.7558478 C24.6137344,10.4455043 23.1821719,10.2145043 21.6833906,10.0710261 C20.81025,8.80253478 19.9056094,7.64911304 18.9974531,6.6507913 C19.2354276,6.4167134 19.4790653,6.18870392 19.7281406,5.96697391 C22.0740469,3.88395652 24.2665313,3.06153913 25.2655313,3.64936957 Z"/>
    <path fill="#53C1DE" d="M18.0310781,13.5823696 C19.5982031,13.5823696 20.8684687,14.8785522 20.8684687,16.4773304 C20.8684687,18.0762522 19.5982031,19.3724348 18.0310781,19.3724348 C16.4640937,19.3724348 15.1936875,18.0762522 15.1936875,16.4773304 C15.1936875,14.8785522 16.4640937,13.5823696 18.0310781,13.5823696"/>
  </g>
</svg>
