<svg xmlns="http://www.w3.org/2000/svg" width="32" height="36" viewBox="0 0 32 36">
  <g fill="none">
    <path fill="#95BF46" d="M27.97175,7.06931507 C27.946625,6.88931507 27.78675,6.78969863 27.654625,6.77872603 C27.52275,6.76787671 24.73175,6.56383562 24.73175,6.56383562 C24.73175,6.56383562 22.793375,4.66582192 22.580625,4.45573973 C22.36775,4.24578082 21.952,4.30964384 21.790625,4.35649315 C21.766875,4.36339726 21.367125,4.48508219 20.705875,4.68690411 C20.058375,2.84917808 18.915625,1.16038356 16.90525,1.16038356 C16.84975,1.16038356 16.792625,1.16260274 16.7355,1.16580822 C16.16375,0.420041096 15.4555,0.0960410959 14.84375,0.0960410959 C10.160625,0.0960410959 7.92325,5.87021918 7.22175,8.80446575 C5.402,9.36061644 4.10925,9.756 3.944125,9.80716438 C2.928375,10.1214247 2.89625,10.1529863 2.762875,11.097 C2.6625,11.8116986 0.00475,32.0837671 0.00475,32.0837671 L20.7145,35.910863 L31.93575,33.5166164 C31.93575,33.5166164 27.996625,7.24931507 27.971875,7.06931507 L27.97175,7.06931507 Z M19.56125,5.03605479 L17.808875,5.571 C17.8095,5.44919178 17.810125,5.32935616 17.810125,5.19830137 C17.810125,4.05616438 17.649375,3.13656164 17.3915,2.40756164 C18.427375,2.53578082 19.11725,3.69826027 19.56125,5.03605479 Z M16.1065,2.6340411 C16.3945,3.34578082 16.58175,4.36721918 16.58175,5.74557534 C16.58175,5.81609589 16.581125,5.88057534 16.5805,5.94579452 C15.440875,6.2939589 14.2025,6.6719589 12.961375,7.05119178 C13.65825,4.39853425 14.9645,3.11732877 16.1065,2.6340411 Z M14.715125,1.3349589 C14.91725,1.3349589 15.120875,1.40264384 15.31575,1.53493151 C13.814875,2.23150685 12.206125,3.98589041 11.52675,7.48935616 L8.666,8.36321918 C9.46175,5.6909589 11.35125,1.3349589 14.715,1.3349589 L14.715125,1.3349589 Z"/>
    <path fill="#5E8E3E" d="M27.654625,6.77872603 C27.52275,6.76787671 24.73175,6.56383562 24.73175,6.56383562 C24.73175,6.56383562 22.793375,4.66582192 22.580625,4.45573973 C22.501,4.37757534 22.393625,4.33750685 22.281375,4.32024658 L20.7155,35.9106164 L31.93575,33.5166164 C31.93575,33.5166164 27.9965,7.24931507 27.97175,7.06931507 C27.946625,6.88931507 27.78675,6.78969863 27.654625,6.77872603"/>
    <path fill="#FFF" d="M16.90525,12.8940411 L15.521625,16.953411 C15.521625,16.953411 14.309375,16.315274 12.823375,16.315274 C10.644875,16.315274 10.53525,17.6636712 10.53525,18.0034521 C10.53525,19.8574521 15.43525,20.5678356 15.43525,24.9105205 C15.43525,28.3271918 13.238125,30.5272603 10.275625,30.5272603 C6.720625,30.5272603 4.902625,28.3450685 4.902625,28.3450685 L5.8545,25.2431507 C5.8545,25.2431507 7.72325,26.8255479 9.300125,26.8255479 C10.3305,26.8255479 10.749625,26.025411 10.749625,25.4407808 C10.749625,23.0223699 6.729625,22.9144932 6.729625,18.9405616 C6.729625,15.5958904 9.163625,12.3592192 14.076875,12.3592192 C15.97,12.3592192 16.90525,12.8940411 16.90525,12.8940411"/>
  </g>
</svg>
