<svg xmlns="http://www.w3.org/2000/svg" width="30" height="16" viewBox="0 0 30 16">
  <path fill="#FFF" fill-rule="evenodd" stroke="#F9415D" stroke-width="1.3" d="M0.76,7.69 C0.76,7.18 1,6.46 1.69,6.01 L9.31,1.06 C9.46,0.94 9.67,0.91 9.88,0.91 C10.78,0.91 11.92,1.87 11.92,3.1 C11.92,3.61 11.71,4.06 11.38,4.27 L6.1,7.69 L11.38,11.11 C11.71,11.32 11.92,11.77 11.92,12.28 C11.92,13.51 10.78,14.47 9.88,14.47 C9.67,14.47 9.46,14.44 9.31,14.32 L1.69,9.37 C1,8.92 0.76,8.2 0.76,7.69 Z M29.24,7.69 C29.24,8.2 29,8.92 28.31,9.37 L20.69,14.32 C20.54,14.44 20.33,14.47 20.12,14.47 C19.22,14.47 18.08,13.51 18.08,12.28 C18.08,11.77 18.29,11.32 18.62,11.11 L23.9,7.69 L18.62,4.27 C18.29,4.06 18.08,3.61 18.08,3.1 C18.08,1.87 19.22,0.91 20.12,0.91 C20.33,0.91 20.54,0.94 20.69,1.06 L28.31,6.01 C29,6.46 29.24,7.18 29.24,7.69 Z"/>
</svg>
