<svg xmlns="http://www.w3.org/2000/svg" width="7" height="24" viewBox="0 0 7 24">
  <path fill="#FFF" fill-rule="evenodd" stroke="#F9415D" stroke-width="1.3" d="M6.675,3.9 C6.675,7.47 6.255,12.6 6.255,16.17 C6.255,17.1 5.235,17.49 4.515,17.49 C3.555,17.49 2.745,17.1 2.745,16.17 C2.745,12.6 2.325,7.47 2.325,3.9 C2.325,2.73 3.285,2.07 4.515,2.07 C5.685,2.07 6.675,2.73 6.675,3.9 Z M4.545,19.56 C5.775,19.56 6.825,20.61 6.825,21.87 C6.825,23.1 5.775,24.18 4.545,24.18 C3.225,24.18 2.235,23.1 2.235,21.87 C2.235,20.61 3.225,19.56 4.545,19.56 Z" transform="translate(-1 -1)"/>
</svg>
