<svg xmlns="http://www.w3.org/2000/svg" width="48" height="36" viewBox="0 0 48 36">
  <path fill="#FFF" fill-rule="evenodd" stroke="#F9415D" stroke-width="3.3" d="M11.6875,34.125 C6.4375,34.125 2.0625,29.75 2.0625,24.625 C2.0625,23.125 2.4375,21.75 9.8125,4.625 C10.5625,2.875 12.1875,2.375 13.5625,2.375 C16.1875,2.375 19.8125,4.125 19.8125,7.25 C19.8125,7.875 19.6875,8.5 19.3125,9.25 L16.1875,16 C19.1875,17.75 21.1875,20.875 21.1875,24.5 C21.1875,29.75 16.9375,34.125 11.6875,34.125 Z M36.6875,34.125 C31.4375,34.125 27.0625,29.75 27.0625,24.625 C27.0625,23.125 27.4375,21.75 34.8125,4.625 C35.5625,2.875 37.1875,2.375 38.5625,2.375 C41.1875,2.375 44.8125,4.125 44.8125,7.25 C44.8125,7.875 44.6875,8.5 44.3125,9.25 L41.1875,16 C44.1875,17.75 46.1875,20.875 46.1875,24.5 C46.1875,29.75 41.9375,34.125 36.6875,34.125 Z"/>
</svg>
