<?xml version="1.0" standalone="no"?>
<!DOCTYPE svg PUBLIC "-//W3C//DTD SVG 20010904//EN"
 "http://www.w3.org/TR/2001/REC-SVG-20010904/DTD/svg10.dtd">
<svg version="1.0" xmlns="http://www.w3.org/2000/svg"
 width="1400.000000pt" height="1400.000000pt" viewBox="0 0 1400.000000 1400.000000"
 preserveAspectRatio="xMidYMid meet">
<metadata>
Created by potrace 1.11, written by Peter Selinger 2001-2013
</metadata>
<g transform="translate(0.000000,1400.000000) scale(0.100000,-0.100000)"
fill="#000000" stroke="none">
<path d="M6688 13995 c-2 -2 -57 -6 -123 -9 -66 -4 -133 -8 -150 -10 -16 -2
-66 -7 -110 -11 -44 -4 -88 -9 -97 -10 -9 -2 -48 -6 -85 -10 -37 -3 -75 -7
-83 -10 -8 -2 -35 -7 -60 -10 -54 -7 -87 -12 -160 -25 -30 -5 -71 -12 -90 -15
-19 -3 -53 -10 -75 -15 -22 -5 -56 -12 -75 -15 -234 -41 -724 -181 -1012 -289
-120 -45 -250 -97 -297 -118 -25 -11 -59 -26 -76 -33 -129 -56 -450 -213 -540
-265 -22 -13 -58 -33 -80 -45 -36 -19 -96 -54 -187 -108 -17 -10 -85 -53 -150
-95 -66 -42 -127 -81 -136 -87 -92 -55 -605 -443 -642 -485 -3 -4 -45 -42 -95
-85 -183 -161 -361 -338 -610 -609 -29 -31 -224 -266 -250 -301 -17 -22 -38
-49 -47 -60 -158 -190 -427 -600 -608 -930 -41 -73 -220 -431 -220 -438 0 -3
-15 -38 -34 -79 -45 -98 -102 -235 -137 -333 -16 -44 -34 -89 -39 -100 -27
-59 -185 -569 -205 -665 -2 -8 -13 -54 -24 -102 -24 -97 -66 -302 -75 -360 -3
-21 -10 -57 -15 -80 -5 -24 -12 -63 -15 -88 -3 -25 -8 -54 -10 -65 -2 -11 -7
-45 -10 -76 -4 -31 -8 -65 -10 -75 -2 -11 -9 -71 -15 -134 -6 -63 -14 -133
-16 -155 -27 -241 -27 -911 0 -1190 4 -43 15 -151 20 -200 7 -58 15 -130 20
-160 3 -16 7 -48 10 -70 5 -38 38 -235 51 -300 58 -312 201 -836 283 -1035 5
-14 22 -59 36 -100 15 -41 36 -94 46 -117 10 -24 19 -45 19 -47 0 -6 78 -189
120 -281 89 -197 273 -547 357 -680 7 -11 21 -36 32 -55 50 -91 362 -543 452
-654 5 -6 25 -31 45 -56 435 -545 999 -1071 1514 -1415 25 -16 50 -34 55 -38
16 -12 215 -141 265 -171 25 -15 54 -32 65 -39 457 -281 1086 -554 1651 -715
309 -89 702 -172 974 -206 25 -4 59 -8 75 -11 17 -2 55 -7 85 -10 30 -3 75 -8
100 -10 325 -36 973 -41 1295 -10 22 2 69 7 105 10 36 4 79 8 95 11 17 2 53 6
80 9 28 2 61 7 75 9 14 3 45 8 70 11 25 3 56 7 70 10 14 2 77 13 140 24 63 11
126 22 140 25 14 3 50 11 80 17 30 6 102 22 159 36 57 13 113 26 124 29 51 9
328 91 476 141 100 33 274 95 316 113 11 4 67 27 125 50 58 23 138 58 178 76
41 19 76 34 79 34 7 0 366 180 433 217 30 17 73 41 95 53 22 12 54 30 70 40
17 11 48 29 70 41 22 12 59 35 82 50 23 16 44 29 46 29 12 0 326 214 462 315
135 100 330 256 424 339 396 350 714 691 1013 1091 169 225 381 548 498 760
18 33 42 76 53 95 26 46 199 392 225 450 146 331 247 606 351 955 42 144 125
489 137 570 3 17 7 41 10 55 3 14 8 35 10 48 19 108 24 142 29 177 3 22 10 65
15 95 5 30 12 82 16 114 3 33 7 67 9 75 1 9 6 57 10 106 4 50 9 101 11 115 26
154 25 902 -1 1180 -8 78 -26 254 -30 280 -2 14 -7 48 -10 75 -4 28 -8 61 -10
75 -4 26 -42 249 -49 285 -9 48 -16 91 -17 97 0 4 -5 22 -10 40 -5 18 -11 44
-14 58 -54 284 -189 723 -336 1090 -175 439 -383 839 -638 1225 -47 72 -88
135 -90 140 -2 6 -7 12 -11 15 -3 3 -22 28 -40 55 -19 28 -38 55 -42 60 -5 6
-38 51 -75 100 -298 401 -689 816 -1073 1140 -194 164 -289 238 -465 362 -71
51 -134 96 -140 101 -22 18 -316 202 -405 253 -289 168 -594 318 -890 437
-268 108 -590 216 -795 268 -16 4 -34 9 -40 10 -21 7 -211 54 -235 59 -34 7
-54 11 -135 29 -66 15 -281 54 -335 61 -14 2 -38 6 -55 9 -16 2 -55 8 -85 11
-30 4 -63 9 -72 10 -9 2 -48 7 -85 10 -37 4 -77 8 -88 10 -11 1 -65 6 -120 10
-55 4 -116 9 -135 12 -39 5 -757 13 -762 8z"/>
</g>
</svg>
